<mxfile host="app.diagrams.net" modified="2023-02-08T04:59:37.054Z" agent="5.0 (X11; Ubuntu)" etag="8zvUZttyV88PddHW5twc" version="20.8.18" type="github">
  <diagram name="Page-1" id="-aldH015BRxY_Bi5c9Rj">
    <mxGraphModel dx="1064" dy="615" grid="1" gridSize="10" guides="1" tooltips="1" connect="1" arrows="1" fold="1" page="1" pageScale="1" pageWidth="850" pageHeight="1100" math="0" shadow="0">
      <root>
        <mxCell id="0" />
        <mxCell id="1" parent="0" />
        <mxCell id="ALGGPw-2lvC0ivmrbfZC-1" value="user" style="swimlane;childLayout=stackLayout;horizontal=1;startSize=30;horizontalStack=0;rounded=1;fontSize=14;fontStyle=0;strokeWidth=2;resizeParent=0;resizeLast=1;shadow=0;dashed=0;align=center;" vertex="1" parent="1">
          <mxGeometry x="80" y="60" width="160" height="120" as="geometry" />
        </mxCell>
        <mxCell id="ALGGPw-2lvC0ivmrbfZC-2" value="username (string)&#xa;password (string)&#xa;" style="align=left;strokeColor=none;fillColor=none;spacingLeft=4;fontSize=12;verticalAlign=top;resizable=0;rotatable=0;part=1;" vertex="1" parent="ALGGPw-2lvC0ivmrbfZC-1">
          <mxGeometry y="30" width="160" height="90" as="geometry" />
        </mxCell>
        <mxCell id="ALGGPw-2lvC0ivmrbfZC-7" value="customer" style="swimlane;childLayout=stackLayout;horizontal=1;startSize=30;horizontalStack=0;rounded=1;fontSize=14;fontStyle=0;strokeWidth=2;resizeParent=0;resizeLast=1;shadow=0;dashed=0;align=center;" vertex="1" parent="1">
          <mxGeometry x="70" y="280" width="160" height="120" as="geometry" />
        </mxCell>
        <mxCell id="ALGGPw-2lvC0ivmrbfZC-8" value="firstname (string)&#xa;lastname (string)&#xa;email (string)&#xa;phone (integer)&#xa;" style="align=left;strokeColor=none;fillColor=none;spacingLeft=4;fontSize=12;verticalAlign=top;resizable=0;rotatable=0;part=1;" vertex="1" parent="ALGGPw-2lvC0ivmrbfZC-7">
          <mxGeometry y="30" width="160" height="90" as="geometry" />
        </mxCell>
        <mxCell id="ALGGPw-2lvC0ivmrbfZC-9" value="movies" style="swimlane;childLayout=stackLayout;horizontal=1;startSize=30;horizontalStack=0;rounded=1;fontSize=14;fontStyle=0;strokeWidth=2;resizeParent=0;resizeLast=1;shadow=0;dashed=0;align=center;" vertex="1" parent="1">
          <mxGeometry x="590" y="270" width="160" height="120" as="geometry" />
        </mxCell>
        <mxCell id="ALGGPw-2lvC0ivmrbfZC-10" value="barcode&#xa;DailyRentalRate (float)&#xa;NumberStock (integer)&#xa;" style="align=left;strokeColor=none;fillColor=none;spacingLeft=4;fontSize=12;verticalAlign=top;resizable=0;rotatable=0;part=1;" vertex="1" parent="ALGGPw-2lvC0ivmrbfZC-9">
          <mxGeometry y="30" width="160" height="90" as="geometry" />
        </mxCell>
        <mxCell id="ALGGPw-2lvC0ivmrbfZC-12" value="rental&#xa;" style="swimlane;childLayout=stackLayout;horizontal=1;startSize=30;horizontalStack=0;rounded=1;fontSize=14;fontStyle=0;strokeWidth=2;resizeParent=0;resizeLast=1;shadow=0;dashed=0;align=center;" vertex="1" parent="1">
          <mxGeometry x="180" y="470" width="160" height="120" as="geometry" />
        </mxCell>
        <mxCell id="ALGGPw-2lvC0ivmrbfZC-13" value="rentdate (date)&#xa;returndate (date)&#xa;" style="align=left;strokeColor=none;fillColor=none;spacingLeft=4;fontSize=12;verticalAlign=top;resizable=0;rotatable=0;part=1;" vertex="1" parent="ALGGPw-2lvC0ivmrbfZC-12">
          <mxGeometry y="30" width="160" height="90" as="geometry" />
        </mxCell>
        <mxCell id="ALGGPw-2lvC0ivmrbfZC-14" value="" style="edgeStyle=entityRelationEdgeStyle;fontSize=12;html=1;endArrow=ERone;endFill=0;startArrow=ERmany;rounded=0;entryX=0;entryY=0.5;entryDx=0;entryDy=0;exitX=0.994;exitY=0.667;exitDx=0;exitDy=0;exitPerimeter=0;startFill=0;" edge="1" parent="1" source="ALGGPw-2lvC0ivmrbfZC-13" target="ALGGPw-2lvC0ivmrbfZC-9">
          <mxGeometry width="100" height="100" relative="1" as="geometry">
            <mxPoint x="480" y="510" as="sourcePoint" />
            <mxPoint x="580" y="410" as="targetPoint" />
          </mxGeometry>
        </mxCell>
        <mxCell id="ALGGPw-2lvC0ivmrbfZC-15" value="" style="edgeStyle=entityRelationEdgeStyle;fontSize=12;html=1;endArrow=ERone;endFill=0;startArrow=ERmany;rounded=0;exitX=1;exitY=0.25;exitDx=0;exitDy=0;startFill=0;" edge="1" parent="1" source="ALGGPw-2lvC0ivmrbfZC-13">
          <mxGeometry width="100" height="100" relative="1" as="geometry">
            <mxPoint x="-30" y="450" as="sourcePoint" />
            <mxPoint x="70" y="350" as="targetPoint" />
          </mxGeometry>
        </mxCell>
        <mxCell id="ALGGPw-2lvC0ivmrbfZC-16" value="Text" style="edgeLabel;html=1;align=center;verticalAlign=middle;resizable=0;points=[];" vertex="1" connectable="0" parent="ALGGPw-2lvC0ivmrbfZC-15">
          <mxGeometry x="0.1462" y="2" relative="1" as="geometry">
            <mxPoint as="offset" />
          </mxGeometry>
        </mxCell>
        <mxCell id="ALGGPw-2lvC0ivmrbfZC-17" value="coupon" style="swimlane;childLayout=stackLayout;horizontal=1;startSize=30;horizontalStack=0;rounded=1;fontSize=14;fontStyle=0;strokeWidth=2;resizeParent=0;resizeLast=1;shadow=0;dashed=0;align=center;" vertex="1" parent="1">
          <mxGeometry x="510" y="460" width="160" height="120" as="geometry" />
        </mxCell>
        <mxCell id="ALGGPw-2lvC0ivmrbfZC-18" value="code (integer)&#xa;description (string)&#xa;discount (integer)&#xa;" style="align=left;strokeColor=none;fillColor=none;spacingLeft=4;fontSize=12;verticalAlign=top;resizable=0;rotatable=0;part=1;" vertex="1" parent="ALGGPw-2lvC0ivmrbfZC-17">
          <mxGeometry y="30" width="160" height="90" as="geometry" />
        </mxCell>
        <mxCell id="ALGGPw-2lvC0ivmrbfZC-19" value="" style="edgeStyle=entityRelationEdgeStyle;fontSize=12;html=1;endArrow=ERzeroToOne;startArrow=ERmany;rounded=0;entryX=0;entryY=0.25;entryDx=0;entryDy=0;endFill=0;" edge="1" parent="1" source="ALGGPw-2lvC0ivmrbfZC-13" target="ALGGPw-2lvC0ivmrbfZC-18">
          <mxGeometry width="100" height="100" relative="1" as="geometry">
            <mxPoint x="310" y="580" as="sourcePoint" />
            <mxPoint x="470" y="480" as="targetPoint" />
          </mxGeometry>
        </mxCell>
        <mxCell id="ALGGPw-2lvC0ivmrbfZC-20" value="role" style="swimlane;childLayout=stackLayout;horizontal=1;startSize=30;horizontalStack=0;rounded=1;fontSize=14;fontStyle=0;strokeWidth=2;resizeParent=0;resizeLast=1;shadow=0;dashed=0;align=center;" vertex="1" parent="1">
          <mxGeometry x="320" y="150" width="160" height="120" as="geometry" />
        </mxCell>
        <mxCell id="ALGGPw-2lvC0ivmrbfZC-21" value="name (string)" style="align=left;strokeColor=none;fillColor=none;spacingLeft=4;fontSize=12;verticalAlign=top;resizable=0;rotatable=0;part=1;" vertex="1" parent="ALGGPw-2lvC0ivmrbfZC-20">
          <mxGeometry y="30" width="160" height="90" as="geometry" />
        </mxCell>
        <mxCell id="ALGGPw-2lvC0ivmrbfZC-22" value="" style="edgeStyle=entityRelationEdgeStyle;fontSize=12;html=1;endArrow=ERmany;startArrow=ERone;rounded=0;entryX=1;entryY=0.5;entryDx=0;entryDy=0;endFill=0;startFill=0;" edge="1" parent="1" source="ALGGPw-2lvC0ivmrbfZC-21" target="ALGGPw-2lvC0ivmrbfZC-2">
          <mxGeometry width="100" height="100" relative="1" as="geometry">
            <mxPoint x="200" y="260" as="sourcePoint" />
            <mxPoint x="300" y="160" as="targetPoint" />
          </mxGeometry>
        </mxCell>
        <mxCell id="ALGGPw-2lvC0ivmrbfZC-23" value="belongs to" style="edgeLabel;html=1;align=center;verticalAlign=middle;resizable=0;points=[];" vertex="1" connectable="0" parent="ALGGPw-2lvC0ivmrbfZC-22">
          <mxGeometry x="-0.057" y="-1" relative="1" as="geometry">
            <mxPoint as="offset" />
          </mxGeometry>
        </mxCell>
      </root>
    </mxGraphModel>
  </diagram>
</mxfile>
